PathFileType	4	(X/Y/Z)	C:/Users/opensim2020/Desktop/walking_exp_matlab/subject01_walking06_straight_01.trc	
DataRate	CameraRate	NumFrames	NumMarkers	Units	OrigDataRate	OrigDataStartFrame	OrigNumFrames	
100.00	100.00	6	43	mm	100.00	828	251	
Frame#	Time	LFHD			RFHD			LBHD			RBHD			C7			T10			CLAV			STRN			RBAK			LSHO			LUPA			LELB			LFRM			LWRA			LWRB			LFIN			RSHO			RUPA			RELB			RFRM			RWRA			RWRB			RFIN			LASI			RASI			LPSI			RPSI			LTHI			LKNE			LTIB			LANK			LHEE			LTOE			RTHI			RKNE			RTIB			RANK			RHEE			RTOE			*39			*40			*41			*42			
		X1	Y1	Z1	X2	Y2	Z2	X3	Y3	Z3	X4	Y4	Z4	X5	Y5	Z5	X6	Y6	Z6	X7	Y7	Z7	X8	Y8	Z8	X9	Y9	Z9	X10	Y10	Z10	X11	Y11	Z11	X12	Y12	Z12	X13	Y13	Z13	X14	Y14	Z14	X15	Y15	Z15	X16	Y16	Z16	X17	Y17	Z17	X18	Y18	Z18	X19	Y19	Z19	X20	Y20	Z20	X21	Y21	Z21	X22	Y22	Z22	X23	Y23	Z23	X24	Y24	Z24	X25	Y25	Z25	X26	Y26	Z26	X27	Y27	Z27	X28	Y28	Z28	X29	Y29	Z29	X30	Y30	Z30	X31	Y31	Z31	X32	Y32	Z32	X33	Y33	Z33	X34	Y34	Z34	X35	Y35	Z35	X36	Y36	Z36	X37	Y37	Z37	X38	Y38	Z38	X39	Y39	Z39	X40	Y40	Z40	X41	Y41	Z41	X42	Y42	Z42	X43	Y43	Z43	

63	0.620	1477.81018	-886.23065	1676.68921	1587.92407	-854.86218	1682.25403	1501.87915	-989.46576	1609.65247	1618.95288	-959.24860	1613.87952	1526.44922	-1001.36627	1434.65576	1513.11670	-1044.75439	1143.14172	1517.22839	-859.46820	1364.20496	1502.63818	-822.36700	1207.68030	1595.00928	-1060.01428	1240.12878	1361.61621	-923.66779	1406.23853	1267.26099	-969.52441	1229.17041	1260.04785	-995.40826	1082.33240	1232.41138	-971.54694	971.44641	1250.72449	-915.49194	843.83405	1221.32568	-967.52283	849.30060	1214.86230	-931.67822	771.79559	1671.08862	-917.10706	1384.47046	1769.42236	-949.63855	1179.14966	1770.51013	-927.49377	1054.32471	1791.29346	-867.72638	946.61218	1761.81604	-760.26215	859.64600	1800.21448	-800.96875	844.39197	1795.53589	-741.44946	784.32275	1396.18994	-873.43481	937.27948	1614.06250	-877.43011	932.01398	1440.76147	-1058.83630	950.52209	1585.62756	-1062.56848	954.76233	1324.03149	-816.98389	624.26508	1339.27661	-792.55023	491.72998	1338.44031	-876.58197	322.40463	1395.12500	-946.86145	117.37768	1457.24121	-985.79999	95.20444	1369.38867	-821.07092	48.53791	1666.27246	-959.92230	604.46155	1643.05627	-964.53601	446.20370	1647.08521	-1032.66455	282.17303	1596.80884	-1066.80811	76.81394	1542.87341	-1113.25269	42.14418	1604.84766	-927.43262	30.62597	1569.89514	-877.19586	1713.51599	-3101.84155	1973.09814	1023.38446	-3140.77490	2012.53833	1022.02502			 
64	0.630	1477.89258	-877.27039	1676.14612	1587.89404	-845.86536	1681.79236	1502.09460	-980.44232	1609.01892	1619.07959	-950.17804	1613.39673	1526.86316	-992.57227	1434.28772	1513.76855	-1036.29773	1142.73840	1517.36987	-850.79260	1363.57849	1502.87305	-813.98016	1206.96362	1595.78650	-1051.38843	1239.86743	1361.82996	-915.30231	1405.62659	1267.78210	-962.51935	1228.62830	1260.76538	-989.96936	1082.34875	1232.72620	-967.65961	971.24341	1250.36926	-913.51794	842.65979	1221.10620	-965.72485	849.08423	1214.50110	-931.13672	770.77332	1671.34216	-908.14429	1384.01965	1769.93103	-940.33258	1178.68628	1771.25037	-917.16528	1054.02979	1791.92993	-856.06335	947.00507	1762.24707	-747.51294	861.48267	1800.65100	-787.94519	845.58478	1795.87695	-727.63434	786.39478	1396.61133	-865.14264	936.71973	1614.54822	-869.08368	931.30981	1441.37207	-1050.73413	950.27490	1586.42468	-1054.55579	954.96368	1324.59497	-807.94366	624.22375	1339.95398	-783.27759	491.56738	1337.76843	-859.68097	318.28470	1393.67212	-918.48236	108.57587	1455.31946	-957.12787	84.84296	1368.35645	-788.85327	47.66781	1666.40698	-954.25970	604.16357	1643.14124	-960.82806	445.99036	1647.36609	-1030.64307	282.92715	1596.64709	-1066.34583	77.60340	1542.42834	-1112.66553	43.11584	1604.76208	-927.25629	30.53570	1569.93835	-868.05603	1713.00854	-3101.77441	1973.06812	1023.49713	-3140.52393	2012.56226	1022.02539			 
65	0.640	1477.74023	-868.42828	1675.53772	1587.71545	-836.80426	1681.13342	1502.08936	-971.58490	1608.47290	1619.05151	-941.08936	1612.89221	1527.18713	-983.76312	1433.87878	1514.32520	-1027.89380	1142.39807	1517.47620	-841.96393	1362.89832	1502.96948	-805.48834	1206.19189	1596.41345	-1042.68079	1239.50171	1361.93689	-906.84827	1404.88660	1268.18750	-955.31018	1228.12646	1261.30408	-984.23798	1082.21875	1232.87329	-963.55548	970.94336	1250.13855	-911.37518	841.39337	1220.85132	-963.44275	848.83594	1214.18237	-930.25720	769.79816	1671.38721	-899.20227	1383.49231	1770.29590	-930.83325	1178.21033	1771.87146	-906.93005	1053.64453	1792.43884	-844.53564	947.32532	1762.55554	-734.97125	863.14233	1801.01379	-775.13397	846.71985	1796.08716	-714.05310	788.27881	1396.87708	-856.78778	936.10504	1614.99573	-860.64832	930.53436	1441.98206	-1042.51526	949.82953	1586.89758	-1045.76770	954.34918	1325.04065	-799.53217	623.95026	1340.48987	-774.71838	491.18896	1336.96948	-843.14807	314.50940	1391.58057	-889.85706	101.33946	1452.82361	-927.75458	74.87143	1366.74036	-756.84747	47.72317	1666.54761	-948.69220	603.93658	1643.25562	-957.18066	445.78375	1647.17456	-1028.36914	283.11508	1596.39185	-1065.74255	78.31995	1542.48779	-1112.56934	44.56484	1604.74731	-927.08105	30.44963	1569.77002	-859.03259	1712.50305	-3102.01050	1973.06189	1023.43268	-3140.65356	2012.52136	1021.94043			 
66	0.650	1477.45374	-859.44055	1674.76294	1587.35730	-827.78033	1680.58350	1501.97205	-962.67596	1607.88464	1618.86780	-932.01404	1612.33997	1527.27563	-974.69415	1433.27832	1514.64209	-1019.30725	1141.84900	1517.30457	-833.20215	1362.07202	1502.99670	-796.94586	1205.37195	1596.74463	-1033.90088	1239.07629	1361.89063	-898.35913	1404.07104	1268.40967	-948.04974	1227.45374	1261.81836	-977.98480	1081.95325	1233.12390	-959.36456	970.63934	1249.64954	-908.59131	840.20715	1220.68079	-960.82599	848.51758	1213.98975	-928.63196	768.61523	1671.44849	-890.02429	1382.96436	1770.45117	-921.17084	1177.67908	1772.37830	-896.86176	1053.18213	1792.87573	-833.09668	947.52618	1762.72168	-722.69055	864.67792	1801.18103	-762.54449	847.67291	1796.27686	-700.69958	790.11816	1397.28381	-847.99597	935.75031	1615.34094	-852.16821	929.82184	1442.52368	-1033.89990	949.16681	1587.37305	-1037.13953	953.86023	1325.38928	-791.67603	623.25470	1341.05957	-766.83838	490.36142	1336.15332	-827.22083	311.09802	1388.97290	-861.01868	94.12962	1449.83545	-898.04401	65.95662	1365.41895	-724.76477	48.38148	1666.70752	-943.09259	603.92047	1643.38330	-953.66675	445.84579	1647.21606	-1026.36133	283.74945	1596.43616	-1065.36853	79.12487	1542.09399	-1112.00879	45.24685	1604.68933	-926.88135	30.27477	1569.43604	-850.03241	1711.84692	-3102.10986	1973.05884	1023.90045	-3140.46729	2012.51807	1021.95386			 
67	0.660	1476.98755	-850.55109	1674.06665	1586.90161	-818.80957	1679.91345	1501.65540	-953.70050	1607.19458	1618.50000	-922.96661	1611.70166	1527.21460	-965.75269	1432.64429	1514.97363	-1011.02020	1141.57263	1517.12549	-824.32074	1361.25476	1502.86792	-788.37347	1204.48950	1596.96338	-1025.16956	1238.59436	1361.69299	-889.79767	1403.20850	1268.40149	-940.60175	1226.75745	1261.86926	-972.71735	1081.67444	1233.11267	-954.65979	970.21570	1249.28833	-905.64484	838.94391	1220.38196	-957.84277	848.16418	1213.66125	-926.88751	767.67346	1671.32458	-880.94073	1382.28076	1770.62915	-911.76300	1177.09839	1772.75916	-886.84760	1052.73755	1793.12183	-821.91870	947.63373	1762.80774	-710.67340	866.06720	1801.28894	-750.29095	848.61475	1796.39282	-687.78595	791.81128	1397.26392	-839.75458	934.88123	1615.54883	-843.56097	929.13757	1442.93604	-1025.40283	948.44519	1587.79358	-1028.59998	953.19196	1325.55530	-784.18250	622.17462	1341.53870	-759.59973	489.18607	1335.29407	-811.80768	307.88306	1386.20300	-832.03510	88.02407	1446.45740	-868.65955	58.24719	1364.20862	-693.10742	49.81772	1666.79858	-937.60034	603.89178	1643.54785	-950.13940	445.83765	1647.30725	-1024.46350	284.60883	1596.33069	-1064.99524	80.01641	1542.28455	-1111.89490	46.99240	1604.78235	-926.69885	30.23314	1568.92114	-841.00171	1711.14771	-3101.84131	1973.13135	1023.28052	-3140.52612	2012.58154	1022.08575			 
68	0.670	1476.28137	-841.25928	1673.38159	1586.29395	-809.77936	1679.15112	1501.18945	-944.73004	1606.37659	1617.99951	-913.94104	1610.99841	1527.06616	-956.83081	1431.99939	1515.03210	-1002.25684	1140.72717	1516.81030	-815.45526	1360.44727	1502.65564	-779.76306	1203.55115	1597.02197	-1016.29358	1237.97168	1361.39832	-881.13263	1402.24463	1268.36792	-933.09326	1225.92847	1262.09070	-966.25214	1081.24841	1232.95154	-949.43219	969.60925	1248.97595	-902.29712	837.68616	1220.04578	-954.41376	847.69763	1213.25244	-924.53778	766.76294	1670.98413	-871.88025	1381.55188	1770.63904	-902.16827	1176.51257	1772.99048	-876.87823	1052.20813	1793.29309	-810.94257	947.64465	1762.76587	-698.92639	867.25665	1801.28284	-738.25653	849.43921	1796.38342	-675.17041	793.32813	1397.29822	-831.06433	934.24249	1615.70374	-834.88416	928.44727	1443.28760	-1016.79712	947.52417	1587.96460	-1019.76392	952.43573	1325.56982	-777.08588	620.72461	1341.90759	-752.77271	487.68243	1334.43994	-796.67883	304.68457	1383.41956	-803.55682	83.06935	1443.12927	-838.65692	50.95421	1362.93091	-662.25861	52.07462	1666.89868	-932.03845	603.95227	1643.65894	-946.67389	445.86908	1647.40540	-1022.58881	285.47165	1596.42297	-1064.43506	80.86883	1542.07520	-1111.45313	47.82291	1604.79736	-926.63702	30.13912	1568.31628	-831.95264	1710.41919	-3101.92871	1973.04749	1023.95172	-3140.71460	2012.51575	1022.04071			 
